<svg xmlns="http://www.w3.org/2000/svg" version="1.1" xmlns:xlink="http://www.w3.org/1999/xlink" width="512" height="512" x="0" y="0" viewBox="0 0 100 100" style="enable-background:new 0 0 512 512" xml:space="preserve"><g><path d="M83.333 10H16.667C13.001 10 10 13.001 10 16.667v66.667C10 86.999 13.001 90 16.667 90h66.666C86.999 90 90 86.999 90 83.333V16.667C90 13.001 86.999 10 83.333 10zM40.007 26.667a6.67 6.67 0 0 0-6.67 6.667V40c0 4.004-1.804 7.556-4.6 10 2.796 2.444 4.6 5.996 4.6 10.003v6.66a6.666 6.666 0 0 0 6.666 6.667V80c-7.366 0-13.333-5.977-13.333-13.337v-6.66a6.666 6.666 0 0 0-6.667-6.666v-.004H20v-6.666A6.667 6.667 0 0 0 26.667 40l.003-6.667C26.67 25.967 32.644 20 40.007 20zM80 53.333A6.669 6.669 0 0 0 73.333 60v6.667C73.333 74.033 67.356 80 59.997 80v-6.667a6.669 6.669 0 0 0 6.67-6.666V60c0-4.007 1.803-7.556 4.6-10-2.797-2.444-4.6-5.996-4.6-10.003v-6.66A6.669 6.669 0 0 0 60 26.67V20c7.363 0 13.333 5.977 13.333 13.337v6.66A6.664 6.664 0 0 0 80 46.663z" fill="#ffffff" opacity="1" data-original="#000000"></path></g></svg>