<svg xmlns="http://www.w3.org/2000/svg" version="1.1" xmlns:xlink="http://www.w3.org/1999/xlink" width="512" height="512" x="0" y="0" viewBox="0 0 32 32" style="enable-background:new 0 0 512 512" xml:space="preserve" class=""><g><path d="M26 2H6a4 4 0 0 0-4 4v20a4 4 0 0 0 4 4h20a4 4 0 0 0 4-4V6a4 4 0 0 0-4-4zm-4.689 4.097a2.91 2.91 0 1 1 0 5.82 2.91 2.91 0 0 1 0-5.82zm3.646 19.06H7.044a1 1 0 0 1-.826-1.564l5.626-8.237a1 1 0 0 1 1.651 0l4.004 5.861 2.504-3.67a1 1 0 0 1 1.652 0l4.127 6.046a1 1 0 0 1-.825 1.564z" fill="#ffffff" opacity="1" data-original="#000000" class=""></path></g></svg>