<svg id="Capa_1" enable-background="new 0 0 448.158 448.158" height="512" viewBox="0 0 448.158 448.158" width="512" xmlns="http://www.w3.org/2000/svg"><g><g id="hide"><path d="m27.425 4.705c-6.274-6.274-16.446-6.274-22.72 0s-6.274 16.446 0 22.72l83.68 83.52c-37.713 27.382-67.654 64.105-86.88 106.56-1.876 4.172-1.876 8.948 0 13.12 40.32 90.4 131.84 153.44 222.56 153.44 37.888-.535 75.03-10.605 108-29.28l88.64 88.64c6.223 6.274 16.353 6.315 22.627.093.031-.031.062-.062.093-.093 6.274-6.223 6.315-16.353.093-22.627-.031-.031-.062-.062-.093-.093zm201.6 292.321c-44.183 0-80-35.817-80-80 .131-12.575 3.315-24.929 9.28-36l24.48 24.32c-6.335 25.742 9.397 51.745 35.138 58.08 7.535 1.854 15.407 1.854 22.942 0l24.32 24.64c-11.162 5.836-23.563 8.909-36.16 8.96z"/><path d="m268.705 211.105c-4.654-15.341-16.659-27.346-32-32z"/><path d="m221.985 144.065c45.181-.089 81.904 36.419 82.08 81.6-.069 6.154-.875 12.278-2.4 18.24l77.6 77.76c28.678-25.205 51.644-56.244 67.36-91.04 1.876-4.172 1.876-8.948 0-13.12-40.32-90.4-131.84-153.44-222.56-153.44-29.109.279-57.874 6.314-84.64 17.76l64 64c6.087-1.374 12.324-1.965 18.56-1.76z"/></g></g></svg>