<svg id="_x31_1.gear" enable-background="new 0 0 195 195" height="512" viewBox="0 0 195 195" width="512" xmlns="http://www.w3.org/2000/svg"><path id="icon_13_" d="m173.2 110.7.3-24.9-15.4-5.7c-1.2-4.2-2.8-8.3-4.8-12.1l7.2-14.8-17.4-17.8-14.9 6.9c-4-2.2-8.3-4.1-12.8-5.4l-5.5-15.5h-24.9l-5.5 15.6c-4.2 1.2-8.2 2.9-12 5l-14.8-7.1-17.6 17.5 7 14.9c-2.1 3.8-3.7 7.8-5 12l-15.5 5.5-.1 24.9 15.5 5.6c1.2 4.2 2.9 8.3 4.9 12.1l-7.1 14.8 17.5 17.7 14.9-7c3.8 2.1 7.8 3.8 12 5.1l5.4 15.5 24.8.2 5.6-15.4c4.2-1.2 8.3-2.9 12.1-4.9l14.8 7.2 17.7-17.4-6.9-14.9c2.1-3.8 3.8-7.8 5.1-12zm-75.7 13.7c-14.9 0-27-12.1-27-27s12.1-27 27-27 27 12.1 27 27-12.1 27-27 27z"/></svg>