<svg id="Layer_1" height="512" viewBox="0 0 100 100" width="512" xmlns="http://www.w3.org/2000/svg"><path d="m63.333 30h20l-20-20z"/><path d="m63.333 36.667c-3.682 0-6.666-2.988-6.666-6.667v-20h-33.334c-3.682 0-6.666 2.981-6.666 6.667v66.666c0 3.679 2.984 6.667 6.666 6.667h53.334c3.678 0 6.666-2.981 6.666-6.667v-46.666zm-20 15h-3.333c-.921 0-1.667.745-1.667 1.666v20c0 .918.746 1.667 1.667 1.667h3.333v5h-3.333c-3.682 0-6.667-2.988-6.667-6.667v-20c0-3.682 2.985-6.666 6.667-6.666h3.333zm23.334 21.666c0 3.682-2.988 6.667-6.667 6.667h-3.333v-5h3.333c.918 0 1.667-.745 1.667-1.667v-20c0-.918-.749-1.666-1.667-1.666h-3.333v-5h3.333c3.679 0 6.667 2.988 6.667 6.666z"/></svg>